<?xml version="1.0" encoding="utf-8"?>
<!-- Generator: Adobe Illustrator 24.2.1, SVG Export Plug-In . SVG Version: 6.00 Build 0)  -->
<svg version="1.1" id="Layer_1" xmlns="http://www.w3.org/2000/svg" xmlns:xlink="http://www.w3.org/1999/xlink" x="0px" y="0px"
	 viewBox="0 0 841.9 595.3" style="enable-background:new 0 0 841.9 595.3;" xml:space="preserve">
<style type="text/css">
	.st0{fill:#2C499A;stroke:#052F6B;stroke-width:2;stroke-miterlimit:10;}
	.st1{fill:none;stroke:#052F6B;stroke-width:2;stroke-miterlimit:10;}
	.st2{fill:url(#SVGID_1_);}
	.st3{fill:none;stroke:#6E0684;stroke-width:2;stroke-miterlimit:10;}
	.st4{fill:#E62046;}
	.st5{fill:none;stroke:#B5092E;stroke-width:2;stroke-miterlimit:10;}
	.st6{fill:url(#SVGID_2_);}
	.st7{fill:none;stroke:#47023D;stroke-width:2;stroke-miterlimit:10;}
	.st8{fill:#E61F4F;}
	.st9{fill:none;stroke:#C60909;stroke-width:2;stroke-miterlimit:10;}
	.st10{fill:url(#SVGID_3_);stroke:#B2061B;stroke-width:2;stroke-miterlimit:10;}
	.st11{fill:none;stroke:#B2061B;stroke-width:2;stroke-miterlimit:10;}
</style>
<g id="Layer_1_1_">
</g>
<g id="Layer_3">
</g>
<g id="Layer_4">
</g>
<g>
	<g>
		<g>
			<path class="st0" d="M531,277.5h75L488.2,404.8c0,0-77.7,7.9-97.8,32.1c0,0-57.6-48.1-99.1-53.5l30.8-41.5L306,319.1l-60.3,88.4
				c0,0,97.8,5.4,135.3,69.6c0,0,32.1-49.7,123.2-40.3l159.4-183.4C663.6,253.4,537.7,226.6,531,277.5z"/>
		</g>
		<g>
			<g>
				<path class="st1" d="M531,277.5h75L488.2,404.8c0,0-77.7,7.9-97.8,32.1c0,0-57.6-48.1-99.1-53.5l30.8-41.5L306,319.1l-60.3,88.4
					c0,0,97.8,5.4,135.3,69.6c0,0,32.1-49.7,123.2-40.3l159.4-183.4C663.6,253.4,537.7,226.6,531,277.5z"/>
			</g>
			<g>
				<path class="st1" d="M533.2,275.4l75,1.5L488.3,406.2c0-0.5-78.2,9.5-97.5,32.8c1,0.1-61-49.8-102.2-54.9l31-42.9l-13.8-19.6
					l-57.2,84c-0.1,0.6,96.3,8.2,132.8,68.6c0,0,34.2-47.8,122-38.8l156.8-181.5C662,255.7,542.2,229.1,533.2,275.4z"/>
			</g>
		</g>
	</g>
	<g>
		
			<linearGradient id="SVGID_1_" gradientUnits="userSpaceOnUse" x1="341.3444" y1="434.6983" x2="373.4044" y2="434.6983" gradientTransform="matrix(1 0 0 -1 0 595.2756)">
			<stop  offset="0" style="stop-color:#450034"/>
			<stop  offset="6.950000e-02" style="stop-color:#4C043D"/>
			<stop  offset="0.4009" style="stop-color:#64125D"/>
			<stop  offset="0.6774" style="stop-color:#6F1B72"/>
			<stop  offset="0.885" style="stop-color:#74207E"/>
			<stop  offset="1" style="stop-color:#762282"/>
		</linearGradient>
		<circle class="st2" cx="357.4" cy="160.6" r="16"/>
		<g>
			<circle class="st3" cx="357.4" cy="160.6" r="16.3"/>
			<circle class="st3" cx="357.4" cy="160.6" r="16.7"/>
			<circle class="st3" cx="357.4" cy="160.6" r="17"/>
		</g>
	</g>
	<g>
		<circle class="st4" cx="468.1" cy="156.9" r="16"/>
		<g>
			<circle class="st5" cx="468.1" cy="156.9" r="16.3"/>
			<circle class="st5" cx="468.1" cy="156.9" r="16.7"/>
			<circle class="st5" cx="468.1" cy="156.9" r="17"/>
		</g>
	</g>
	<g>
		<g>
			<linearGradient id="SVGID_2_" gradientUnits="userSpaceOnUse" x1="286.3561" y1="258.0474" x2="392.4461" y2="258.0474">
				<stop  offset="0" style="stop-color:#450034"/>
				<stop  offset="6.950000e-02" style="stop-color:#4C043D"/>
				<stop  offset="0.4009" style="stop-color:#64125D"/>
				<stop  offset="0.6774" style="stop-color:#6F1B72"/>
				<stop  offset="0.885" style="stop-color:#74207E"/>
				<stop  offset="1" style="stop-color:#762282"/>
			</linearGradient>
			<path class="st6" d="M286.4,134.9c0,0,33,44.2,19.8,76c0,0-24.3,28.3-2.1,76.7c0,0,25.4,72.9,88.5,93.5c0,0-61.7-39.1-59.6-123.1
				c0,0-0.8-48.6,55.7-44.7c0,0-19.5-14.4-57.8-16.6C330.8,196.7,318.3,158.7,286.4,134.9z"/>
		</g>
		<g>
			<g>
				<g>
					<path class="st7" d="M286.1,134c0,0,33.7,44.6,20.2,76.7c0,0-24.8,28.5-2.1,77.4c0,0,25.9,73.5,90.4,94.3
						c0,0-63-39.4-60.9-124.2c0,0-0.8-49,56.9-45.1c0,0-19.9-14.5-59-16.7C331.5,196.4,318.7,158,286.1,134z"/>
				</g>
				<g>
					<path class="st7" d="M289.9,137.9c0,0,25.3,17.7,40.9,59.1c0,0,32.3,0.9,57.6,15.4c0,0-48.8-6.5-55.1,41.7c0,0-3.7,27,9.2,62
						c0,0,12.9,38.5,46.5,63.3c0,0-26.3-6.6-59.5-47.9c0,0-22-27.9-31.9-64.3c0,0-9.1-32.2,9.1-56c0,0,8.7-12.3-1.4-42.9
						C305.3,168.3,299,151.2,289.9,137.9z"/>
				</g>
			</g>
			<g>
				<path class="st7" d="M288.2,136.2c0,0,6.7,5,9.4,8c0,0,6.7,6.8,9.6,10.5c0,0,11.5,14.1,17.4,27.1c0,0,6.1,13,6.5,14.9
					c0,0,23.1,1.3,40.1,7.7c0,0,13.4,4.9,18.2,8.4c0,0-20.4-2-34.3,6.5c0,0-8.5,4.4-13.1,11.9c0,0-4.6,6.5-6.2,12.8
					c0,0-1,2.3-2.3,11.6c0,0-0.4,7.1-0.3,9.2c0,0,1,17.9,1.8,21.5c0,0,2.9,14.6,3.4,16c0,0,1.3,6.3,6.3,18.7c0,0,6,13.5,6.8,14
					c0,0,7.9,13.5,10.2,16.2c0,0,9.5,11.8,12.4,14.7c6.5,6.4,5.6,5.6,14.5,13.1l1.7,1.3c0,0-4.4-1-6.9-2.3c0,0-6.5-2.9-10-5.1
					l-7.1-4.5c0,0-11.3-8.1-11.9-9.1c-0.6-0.9-2.9-2.3-10.1-9.4c-7.2-7.2-8.3-9.1-8.3-9.1l-3.4-4c0,0-6.4-8.4-6.6-8.6
					c-0.1-0.2-2.9-4.2-2.9-4.2s-4.8-7.6-4.9-7.8c0,0-5-8.8-5.2-9.2c-0.2-0.4-3.8-7.4-4.2-8.4s-3.8-8.5-3.8-8.5
					c-3.8-9.2-3.8-9.2-3.8-9.2s-1.6-4.1-3.8-11.8c0,0-2-8.2-2-10.4l-0.6-6.5c0,0-0.1-7.7,0.1-8.2c0,0,0.4-5.9,0.9-8.2
					c0,0,1.2-5.6,1.4-6.1l0.8-2.6l0.7-2.2l0.7-1.8l0.7-1.7l0.6-1.4l1-2l0.9-1.6l0.5-0.8l2.2-3.4l0.9-1.1c0,0,0.6-1,0.6-1.2
					c0.1-0.2,0.6-1.6,0.6-1.6l0.5-1.5l0.3-1.2l0.2-1l0.3-1.5l0.3-1.5l0.1-1.2l0-0.9l0.1-1l0.1-1.2l0-1.1v-1l0-0.8l0-0.7l0-0.8v-0.6
					l0-0.7l0-0.6l-0.1-0.6l0-0.5l-0.2-1.8l-0.1-0.8l-0.1-0.6l-0.1-0.6l-0.1-0.7l-0.1-0.7l-0.6-3.6l-0.4-1.7l-0.3-1.3l-0.3-1.3
					l-0.3-1l-0.2-0.8l-0.4-1.3l-0.2-0.8l-0.3-1l-0.3-1.1l-0.3-1.1l-0.5-1.5l-0.5-1.3l-1.8-4.5l-1.3-2.9
					C301.3,159.5,293.9,143.4,288.2,136.2z"/>
			</g>
		</g>
	</g>
	<g>
		<g>
			<g>
				<path class="st8" d="M488.7,194.5c-38.9,2.2-58.7,16.9-58.7,16.9c57.4-4,56.6,45.4,56.6,45.4c2.1,85.3-60.6,125.1-60.6,125.1
					c64.1-20.9,89.9-95,89.9-95c22.6-49.2-2.1-77.9-2.1-77.9c-13.4-32.3,20.1-77.2,20.1-77.2C501.5,155.9,488.8,194.5,488.7,194.5z"
					/>
			</g>
		</g>
		<g>
			<g>
				<g>
					<path class="st9" d="M488,194.1c-39.7,2.3-60,17-60,17c58.6-4,57.8,45.8,57.8,45.8C488,343,424,383.1,424,383.1
						c65.5-21.1,91.8-95.8,91.8-95.8c23-49.6-2.2-78.6-2.2-78.6c-13.7-32.6,20.5-77.9,20.5-77.9C501.1,155.2,488.1,194.1,488,194.1z
						"/>
				</g>
				<g>
					<path class="st9" d="M530.4,134.7c0,0-25.7,18-41.6,60.1c0,0-32.8,0.9-58.5,15.6c0,0,49.6-6.6,56,42.3c0,0,3.8,27.4-9.3,63
						c0,0-13.1,39.1-47.3,64.3c0,0,26.7-6.7,60.5-48.6c0,0,22.4-28.4,32.4-65.3c0,0,9.3-32.7-9.3-56.9c0,0-8.9-12.5,1.4-43.6
						C514.7,165.6,521,148.3,530.4,134.7z"/>
				</g>
			</g>
			<g>
				<path class="st9" d="M532,133c0,0-6.8,5.1-9.6,8.1c0,0-6.8,6.9-9.7,10.7c0,0-11.7,14.3-17.7,27.5c0,0-6.2,13.2-6.6,15.1
					c0,0-23.5,1.3-40.8,7.8c0,0-13.6,5-18.5,8.6c0,0,20.7-2,34.9,6.6c0,0,8.7,4.5,13.4,12.1c0,0,4.7,6.6,6.3,13c0,0,1,2.4,2.4,11.7
					c0,0,0.4,7.2,0.3,9.4c0,0-1,18.2-1.8,21.8c0,0-3,14.9-3.5,16.3c0,0-1.3,6.4-6.4,19c0,0-6.1,13.7-6.9,14.2c0,0-8,13.8-10.4,16.4
					c0,0-9.6,12-12.6,14.9c-6.6,6.5-5.7,5.7-14.8,13.3l-1.8,1.4c0,0,4.4-1,7-2.4c0,0,6.6-3,10.2-5.2l7.2-4.6c0,0,11.4-8.3,12.1-9.2
					s3-2.3,10.3-9.6c7.3-7.3,8.5-9.2,8.5-9.2l3.4-4c0,0,6.6-8.5,6.7-8.7c0.1-0.2,2.9-4.3,2.9-4.3s4.9-7.7,5-8c0,0,5-8.9,5.3-9.3
					c0.2-0.4,3.8-7.5,4.3-8.5c0.5-1,3.8-8.6,3.8-8.6c3.8-9.3,3.8-9.3,3.8-9.3s1.6-4.2,3.9-12c0,0,2-8.3,2.1-10.6l0.6-6.6
					c0,0,0.1-7.8-0.1-8.4c0,0-0.4-6-0.9-8.3c0,0-1.3-5.7-1.4-6.2l-0.8-2.7l-0.7-2.2l-0.7-1.8l-0.7-1.7l-0.6-1.4l-1-2l-0.9-1.7
					l-0.5-0.8l-2.3-3.5l-0.9-1.2c0,0-0.6-1-0.6-1.3c-0.1-0.2-0.6-1.6-0.6-1.6l-0.5-1.5l-0.3-1.2l-0.2-1l-0.3-1.5l-0.3-1.5l-0.1-1.2
					l0-0.9l-0.1-1.1l-0.1-1.2l0-1.1v-1l0-0.8l0-0.8l0-0.8v-0.6l0-0.7l0-0.6l0.1-0.6l0-0.5l0.2-1.8l0.1-0.8l0.1-0.6l0.1-0.6l0.1-0.7
					l0.1-0.7l0.6-3.6l0.4-1.7l0.3-1.3l0.3-1.3l0.3-1l0.2-0.8l0.4-1.3l0.2-0.8l0.3-1l0.3-1.1l0.3-1.1l0.5-1.5l0.5-1.3l1.8-4.6l1.3-3
					C518.8,156.6,526.2,140.3,532,133z"/>
			</g>
		</g>
	</g>
	<g>
		<linearGradient id="SVGID_3_" gradientUnits="userSpaceOnUse" x1="385.0095" y1="311.3672" x2="436.8893" y2="311.3672">
			<stop  offset="0" style="stop-color:#E30613"/>
			<stop  offset="0" style="stop-color:#E40E1F"/>
			<stop  offset="0" style="stop-color:#E51B3A"/>
			<stop  offset="0" style="stop-color:#E62046"/>
			<stop  offset="0.1859" style="stop-color:#E62347"/>
			<stop  offset="0.2529" style="stop-color:#E62D4B"/>
			<stop  offset="0.3007" style="stop-color:#E73B52"/>
			<stop  offset="0.3393" style="stop-color:#E84E5C"/>
			<stop  offset="0.3724" style="stop-color:#EA656B"/>
			<stop  offset="0.4017" style="stop-color:#ED7F7F"/>
			<stop  offset="0.4282" style="stop-color:#EF9B97"/>
			<stop  offset="0.4526" style="stop-color:#F2BAB5"/>
			<stop  offset="0.4742" style="stop-color:#F4D8D4"/>
			<stop  offset="0.4944" style="stop-color:#F6F6F6"/>
			<stop  offset="0.4981" style="stop-color:#F0EEF1"/>
			<stop  offset="0.5185" style="stop-color:#D3C5D7"/>
			<stop  offset="0.5415" style="stop-color:#BBA0BD"/>
			<stop  offset="0.5662" style="stop-color:#A57FA5"/>
			<stop  offset="0.593" style="stop-color:#946393"/>
			<stop  offset="0.6227" style="stop-color:#874D84"/>
			<stop  offset="0.6562" style="stop-color:#7C3C79"/>
			<stop  offset="0.6953" style="stop-color:#733172"/>
			<stop  offset="0.7437" style="stop-color:#6E296E"/>
			<stop  offset="0.8116" style="stop-color:#6A246C"/>
			<stop  offset="1" style="stop-color:#69236B"/>
		</linearGradient>
		<path class="st10" d="M423.7,273.2c0.2-12.2,5.8-10.4,5.8-10.4v-14.4H411h-18.5v14.4c0,0,5.6-1.9,5.8,10.4c0,0,5,19.6-13.2,41.1
			c0,0,21.5,44.1,21.9,60l0.7-53.4c0,0-4.5,0.9-4.6-3.9s4.3-4.2,4.3-4.2h3.6h3.6c0,0,4.4-0.6,4.3,4.2c-0.1,4.8-4.6,3.9-4.6,3.9
			l0.7,53.4c0.4-15.9,21.9-60,21.9-60C418.7,292.8,423.7,273.2,423.7,273.2z"/>
		<g>
			<g>
				<g>
					<path class="st11" d="M411,248.4h-17.7v13.5c0,0,5.8-1.2,5.9,10.8c0,0,0.8,5.2,0.6,6.5c0,0-0.2,6.4-1,9.4c0,0-1.3,6.4-3.1,9.9
						c0,0-2.1,5-5.9,10.6c0,0-2.5,3.6-3.7,4.8l4.8,10.3l3.6,8l2.2,5.4l4.1,10l2.5,7.1c0,0,3.6,10.8,3.6,12.2l0.7-46
						c0,0-4.1,0.7-4.6-4.4c0,0-0.2-5,5-4.6h6.1"/>
				</g>
				<g>
					<path class="st11" d="M411,248.4h17.7v13.5c0,0-5.8-1.2-5.9,10.8c0,0-0.8,5.2-0.6,6.5c0,0,0.2,6.4,1,9.4c0,0,1.3,6.4,3.1,9.9
						c0,0,2.1,5,5.9,10.6c0,0,2.5,3.6,3.7,4.8l-4.8,10.3l-3.6,8l-2.2,5.4l-4.1,10l-2.5,7.1c0,0-3.6,10.8-3.6,12.2l-0.7-46
						c0,0,4.1,0.7,4.6-4.4c0,0,0.2-5-5-4.6"/>
				</g>
			</g>
			<g>
				<g>
					<path class="st11" d="M411,249.1h-17.1v12.6c0,0,5.6,0.4,5.8,12.1c0,0,0.8,5.1,0.6,6.4c0,0-0.2,6.3-1,9.2c0,0-1.2,6.2-3.1,9.7
						c0,0-2,4.9-5.8,10.4c0,0-2.4,3.5-3.6,4.7l4.7,10l3.5,7.8l2.2,5.3l4,9.8l2.5,6.9c0,0,3.2,10.5,3.2,11.9l0.7-43.9
						c0-0.1-3.8-0.4-4.2-5.2c0,0-0.2-4.9,4.9-4.5h6"/>
				</g>
				<g>
					<path class="st11" d="M410.6,249.1h17.5v12.6c0,0-5.6,0.4-5.8,12.1c0,0-0.8,5.1-0.6,6.4c0,0,0.2,6.3,1,9.2c0,0,1.2,6.2,3.1,9.7
						c0,0,2,4.9,5.8,10.4c0,0,2.4,3.5,3.6,4.7l-4.7,10L427,332l-2.2,5.3l-4,9.8l-2.5,6.9c0,0-3.3,10.5-3.3,11.9l-0.6-44.2
						c0,0,3.7,0.1,4.2-4.9c0,0,0.2-4.9-4.9-4.5h-6"/>
				</g>
			</g>
		</g>
	</g>
</g>
</svg>
